M48
INCH,TZ
T1C0.0157
T2C0.0335
%
G90
G05
T1
X51426Y-37900
X51448Y-40950
X51500Y-36326
X52400Y-27000
X53100Y-36250
X54400Y-31900
X54750Y-37426
X54950Y-30700
X55000Y-32700
X55950Y-34600
X57250Y-37276
X57300Y-40650
X58250Y-36050
X58300Y-35063
X59750Y-33350
X59950Y-35950
T2
X48400Y-29980
X48400Y-30980
X49006Y-46000
X49400Y-27000
X49400Y-29980
X49400Y-30980
X50006Y-46000
X50400Y-27000
X50400Y-29980
X50400Y-30980
X51006Y-46000
X51400Y-27000
X52400Y-27000
X53000Y-46000
X53400Y-27000
X54000Y-46000
X54400Y-27000
X55000Y-46000
X55400Y-27000
X56000Y-46000
X56400Y-27000
X57000Y-46000
X57400Y-27000
X58000Y-46000
X58400Y-27000
X59000Y-46000
X60000Y-27000
X60000Y-46000
X61000Y-27000
X62000Y-27000
X62000Y-46000
X63000Y-27000
X63000Y-46000
X64000Y-27000
X64000Y-46000
X65000Y-27000
X65000Y-46000
X66000Y-27000
X66000Y-46000
X67000Y-27000
X67000Y-46000
X67048Y-35006
X67048Y-36006
X67048Y-37006
X68048Y-35006
X68048Y-36006
X68048Y-37006
M30
