%TF.GenerationSoftware,KiCad,Pcbnew,8.0.5*%
%TF.CreationDate,2024-12-01T00:47:40-06:00*%
%TF.ProjectId,ArduinoUnoR4Shield,41726475-696e-46f5-956e-6f5234536869,1.0*%
%TF.SameCoordinates,Original*%
%TF.FileFunction,Copper,L1,Top*%
%TF.FilePolarity,Positive*%
%FSLAX46Y46*%
G04 Gerber Fmt 4.6, Leading zero omitted, Abs format (unit mm)*
G04 Created by KiCad (PCBNEW 8.0.5) date 2024-12-01 00:47:40*
%MOMM*%
%LPD*%
G01*
G04 APERTURE LIST*
G04 Aperture macros list*
%AMRoundRect*
0 Rectangle with rounded corners*
0 $1 Rounding radius*
0 $2 $3 $4 $5 $6 $7 $8 $9 X,Y pos of 4 corners*
0 Add a 4 corners polygon primitive as box body*
4,1,4,$2,$3,$4,$5,$6,$7,$8,$9,$2,$3,0*
0 Add four circle primitives for the rounded corners*
1,1,$1+$1,$2,$3*
1,1,$1+$1,$4,$5*
1,1,$1+$1,$6,$7*
1,1,$1+$1,$8,$9*
0 Add four rect primitives between the rounded corners*
20,1,$1+$1,$2,$3,$4,$5,0*
20,1,$1+$1,$4,$5,$6,$7,0*
20,1,$1+$1,$6,$7,$8,$9,0*
20,1,$1+$1,$8,$9,$2,$3,0*%
G04 Aperture macros list end*
%TA.AperFunction,SMDPad,CuDef*%
%ADD10RoundRect,0.100000X-0.320000X-0.100000X0.320000X-0.100000X0.320000X0.100000X-0.320000X0.100000X0*%
%TD*%
%TA.AperFunction,SMDPad,CuDef*%
%ADD11RoundRect,0.150000X-0.150000X0.512500X-0.150000X-0.512500X0.150000X-0.512500X0.150000X0.512500X0*%
%TD*%
%TA.AperFunction,SMDPad,CuDef*%
%ADD12R,0.300000X1.600000*%
%TD*%
%TA.AperFunction,SMDPad,CuDef*%
%ADD13RoundRect,0.250000X0.625000X-0.312500X0.625000X0.312500X-0.625000X0.312500X-0.625000X-0.312500X0*%
%TD*%
%TA.AperFunction,SMDPad,CuDef*%
%ADD14RoundRect,0.250000X-0.625000X0.312500X-0.625000X-0.312500X0.625000X-0.312500X0.625000X0.312500X0*%
%TD*%
%TA.AperFunction,SMDPad,CuDef*%
%ADD15RoundRect,0.250000X-0.475000X0.250000X-0.475000X-0.250000X0.475000X-0.250000X0.475000X0.250000X0*%
%TD*%
%TA.AperFunction,SMDPad,CuDef*%
%ADD16RoundRect,0.250000X0.250000X0.475000X-0.250000X0.475000X-0.250000X-0.475000X0.250000X-0.475000X0*%
%TD*%
%TA.AperFunction,SMDPad,CuDef*%
%ADD17RoundRect,0.250000X0.475000X-0.250000X0.475000X0.250000X-0.475000X0.250000X-0.475000X-0.250000X0*%
%TD*%
%TA.AperFunction,ComponentPad*%
%ADD18C,1.422000*%
%TD*%
%TA.AperFunction,ViaPad*%
%ADD19C,0.800000*%
%TD*%
%TA.AperFunction,Conductor*%
%ADD20C,0.250000*%
%TD*%
G04 APERTURE END LIST*
D10*
%TO.P,MAX30101,1,NC*%
%TO.N,unconnected-(U8-NC-Pad1)*%
X155321000Y-89586000D03*
%TO.P,MAX30101,2,SCL*%
%TO.N,Net-(U8-SCL)*%
X155321000Y-90386000D03*
%TO.P,MAX30101,3,SDA*%
%TO.N,Net-(U8-SDA)*%
X155321000Y-91186000D03*
%TO.P,MAX30101,4,GND*%
%TO.N,unconnected-(U8-GND-Pad4)*%
X155321000Y-91986000D03*
%TO.P,MAX30101,5,NC*%
%TO.N,unconnected-(U8-NC-Pad5)*%
X155321000Y-92786000D03*
%TO.P,MAX30101,6,NC*%
%TO.N,unconnected-(U8-NC-Pad6)*%
X155321000Y-93586000D03*
%TO.P,MAX30101,7,NC*%
%TO.N,unconnected-(U8-NC-Pad7)*%
X155321000Y-94386000D03*
%TO.P,MAX30101,8,NC*%
%TO.N,unconnected-(U8-NC-Pad8)*%
X157711000Y-94386000D03*
%TO.P,MAX30101,9,VDD_LED*%
%TO.N,unconnected-(U8-VDD_LED-Pad9)*%
X157711000Y-93586000D03*
%TO.P,MAX30101,10,VDD_LED*%
%TO.N,unconnected-(U8-VDD_LED-Pad10)*%
X157711000Y-92786000D03*
%TO.P,MAX30101,11,VDD*%
%TO.N,unconnected-(U8-VDD-Pad11)*%
X157711000Y-91986000D03*
%TO.P,MAX30101,12,GND*%
%TO.N,unconnected-(U8-GND-Pad12)*%
X157711000Y-91186000D03*
%TO.P,MAX30101,13,INT*%
%TO.N,Net-(U8-INT)*%
X157711000Y-90386000D03*
%TO.P,MAX30101,14,NC*%
%TO.N,unconnected-(U8-NC-Pad14)*%
X157711000Y-89586000D03*
%TD*%
D11*
%TO.P,LM4132xMF-1.8,1,NC*%
%TO.N,unconnected-(U10-NC-Pad1)*%
X146492000Y-103383500D03*
%TO.P,LM4132xMF-1.8,2,GND*%
%TO.N,GND*%
X145542000Y-103383500D03*
%TO.P,LM4132xMF-1.8,3,EN*%
%TO.N,Net-(U10-EN)*%
X144592000Y-103383500D03*
%TO.P,LM4132xMF-1.8,4,VIN*%
X144592000Y-105658500D03*
%TO.P,LM4132xMF-1.8,5,VREF*%
%TO.N,Net-(U10-VREF)*%
X146492000Y-105658500D03*
%TD*%
D12*
%TO.P,U9,8,B1*%
%TO.N,Net-(U6-SDA)*%
X141392000Y-82755000D03*
%TO.P,U9,7,VCCB*%
%TO.N,Net-(U10-EN)*%
X142042000Y-82755000D03*
%TO.P,U9,6,OE*%
%TO.N,Net-(U10-VREF)*%
X142692000Y-82755000D03*
%TO.P,U9,5,A1*%
%TO.N,Net-(U8-SDA)*%
X143342000Y-82755000D03*
%TO.P,U9,4,A2*%
%TO.N,Net-(U8-INT)*%
X143342000Y-86155000D03*
%TO.P,U9,3,VCCA*%
%TO.N,Net-(U10-VREF)*%
X142692000Y-86155000D03*
%TO.P,U9,2,GND*%
%TO.N,GND*%
X142042000Y-86155000D03*
%TO.P,U9,1,B2*%
%TO.N,Net-(U6-D8)*%
X141392000Y-86155000D03*
%TD*%
D13*
%TO.P,R2,1*%
%TO.N,GND*%
X130810000Y-92267500D03*
%TO.P,R2,2*%
%TO.N,Net-(U8-SCL)*%
X130810000Y-89342500D03*
%TD*%
D14*
%TO.P,R1,1*%
%TO.N,Net-(U6-SCL)*%
X130810000Y-83627500D03*
%TO.P,R1,2*%
%TO.N,Net-(U8-SCL)*%
X130810000Y-86552500D03*
%TD*%
D15*
%TO.P,C4,1*%
%TO.N,GND*%
X145415000Y-94681000D03*
%TO.P,C4,2*%
%TO.N,Net-(U10-VREF)*%
X145415000Y-96581000D03*
%TD*%
D16*
%TO.P,0.1uF,1*%
%TO.N,Net-(U10-EN)*%
X132578000Y-104013000D03*
%TO.P,0.1uF,2*%
%TO.N,GND*%
X130678000Y-104013000D03*
%TD*%
D17*
%TO.P,C2,1*%
%TO.N,Net-(U10-VREF)*%
X139065000Y-96962000D03*
%TO.P,C2,2*%
%TO.N,GND*%
X139065000Y-95062000D03*
%TD*%
D16*
%TO.P,10uF,1*%
%TO.N,Net-(U10-EN)*%
X132522000Y-96266000D03*
%TO.P,10uF,2*%
%TO.N,GND*%
X130622000Y-96266000D03*
%TD*%
D18*
%TO.P,U1,1,OFF*%
%TO.N,unconnected-(U1-OFF-Pad1)*%
X124474990Y-116840010D03*
%TO.P,U1,2,GND*%
%TO.N,unconnected-(U1-GND-Pad2)*%
X127014990Y-116840010D03*
%TO.P,U1,3,VRTC*%
%TO.N,unconnected-(U1-VRTC-Pad3)*%
X129554990Y-116840010D03*
%TD*%
%TO.P,U5,1,CIPO*%
%TO.N,unconnected-(U5-CIPO-Pad1)*%
X170301990Y-88915010D03*
%TO.P,U5,2,+5V*%
%TO.N,unconnected-(U5-+5V-Pad2)*%
X172841990Y-88915010D03*
%TO.P,U5,3,SCK*%
%TO.N,unconnected-(U5-SCK-Pad3)*%
X170301990Y-91455010D03*
%TO.P,U5,4,COPI*%
%TO.N,unconnected-(U5-COPI-Pad4)*%
X172841990Y-91455010D03*
%TO.P,U5,5,RESET*%
%TO.N,unconnected-(U5-RESET-Pad5)*%
X170301990Y-93995010D03*
%TO.P,U5,6,GND*%
%TO.N,unconnected-(U5-GND-Pad6)*%
X172841990Y-93995010D03*
%TD*%
%TO.P,U7,11,D7*%
%TO.N,unconnected-(U7-D7-Pad11)*%
X152399990Y-68580010D03*
%TO.P,U7,12,~D6*%
%TO.N,unconnected-(U7-~D6-Pad12)*%
X154939990Y-68580010D03*
%TO.P,U7,13,~D5*%
%TO.N,unconnected-(U7-~D5-Pad13)*%
X157479990Y-68580010D03*
%TO.P,U7,14,D4*%
%TO.N,unconnected-(U7-D4-Pad14)*%
X160019990Y-68580010D03*
%TO.P,U7,15,~D3*%
%TO.N,unconnected-(U7-~D3-Pad15)*%
X162559990Y-68580010D03*
%TO.P,U7,16,D2*%
%TO.N,unconnected-(U7-D2-Pad16)*%
X165099990Y-68580010D03*
%TO.P,U7,17,D1/TX0*%
%TO.N,unconnected-(U7-D1{slash}TX0-Pad17)*%
X167639990Y-68580010D03*
%TO.P,U7,18,D0/RX0*%
%TO.N,unconnected-(U7-D0{slash}RX0-Pad18)*%
X170179990Y-68580010D03*
%TD*%
%TO.P,U6,1,SCL*%
%TO.N,Net-(U6-SCL)*%
X125476000Y-68580000D03*
%TO.P,U6,2,SDA*%
%TO.N,Net-(U6-SDA)*%
X128016000Y-68580000D03*
%TO.P,U6,3,AREF*%
%TO.N,unconnected-(U6-AREF-Pad3)*%
X130556000Y-68580000D03*
%TO.P,U6,4,GND*%
%TO.N,GND*%
X133096000Y-68580000D03*
%TO.P,U6,5,D13/SCK/CANRX0*%
%TO.N,unconnected-(U6-D13{slash}SCK{slash}CANRX0-Pad5)*%
X135636000Y-68580000D03*
%TO.P,U6,6,D12/CIPO*%
%TO.N,unconnected-(U6-D12{slash}CIPO-Pad6)*%
X138176000Y-68580000D03*
%TO.P,U6,7,~D11/COPI*%
%TO.N,unconnected-(U6-~D11{slash}COPI-Pad7)*%
X140716000Y-68580000D03*
%TO.P,U6,8,~D10/CS/CANTX0*%
%TO.N,unconnected-(U6-~D10{slash}CS{slash}CANTX0-Pad8)*%
X143256000Y-68580000D03*
%TO.P,U6,9,~D9*%
%TO.N,unconnected-(U6-~D9-Pad9)*%
X145796000Y-68580000D03*
%TO.P,U6,10,D8*%
%TO.N,Net-(U6-D8)*%
X148336000Y-68580000D03*
%TD*%
%TO.P,U3,9,A0*%
%TO.N,unconnected-(U3-A0-Pad9)*%
X157480000Y-116840000D03*
%TO.P,U3,10,A1*%
%TO.N,unconnected-(U3-A1-Pad10)*%
X160020000Y-116840000D03*
%TO.P,U3,11,A2*%
%TO.N,unconnected-(U3-A2-Pad11)*%
X162560000Y-116840000D03*
%TO.P,U3,12,A3*%
%TO.N,unconnected-(U3-A3-Pad12)*%
X165100000Y-116840000D03*
%TO.P,U3,13,A4*%
%TO.N,unconnected-(U3-A4-Pad13)*%
X167640000Y-116840000D03*
%TO.P,U3,14,A5*%
%TO.N,unconnected-(U3-A5-Pad14)*%
X170180000Y-116840000D03*
%TD*%
%TO.P,U2,1,BOOT*%
%TO.N,unconnected-(U2-BOOT-Pad1)*%
X134620000Y-116840000D03*
%TO.P,U2,2,IOREF*%
%TO.N,unconnected-(U2-IOREF-Pad2)*%
X137160000Y-116840000D03*
%TO.P,U2,3,Reset*%
%TO.N,unconnected-(U2-Reset-Pad3)*%
X139700000Y-116840000D03*
%TO.P,U2,4,+3V3*%
%TO.N,unconnected-(U2-+3V3-Pad4)*%
X142240000Y-116840000D03*
%TO.P,U2,5,+5V*%
%TO.N,Net-(U10-EN)*%
X144780000Y-116840000D03*
%TO.P,U2,6,GND*%
%TO.N,unconnected-(U2-GND-Pad6)*%
X147320000Y-116840000D03*
%TO.P,U2,7,GND*%
%TO.N,unconnected-(U2-GND-Pad7)*%
X149860000Y-116840000D03*
%TO.P,U2,8,VIN*%
%TO.N,unconnected-(U2-VIN-Pad8)*%
X152400000Y-116840000D03*
%TD*%
%TO.P,U4,1,GPIO42*%
%TO.N,unconnected-(U4-GPIO42-Pad1)*%
X128016000Y-76149200D03*
%TO.P,U4,2,GPIO41*%
%TO.N,unconnected-(U4-GPIO41-Pad2)*%
X128016000Y-78689200D03*
%TO.P,U4,3,GPIO43/TXD0*%
%TO.N,unconnected-(U4-GPIO43{slash}TXD0-Pad3)*%
X125476000Y-76149200D03*
%TO.P,U4,4,GPIO0/DOWNLOAD*%
%TO.N,unconnected-(U4-GPIO0{slash}DOWNLOAD-Pad4)*%
X125476000Y-78689200D03*
%TO.P,U4,5,GPIO44/RXD0*%
%TO.N,unconnected-(U4-GPIO44{slash}RXD0-Pad5)*%
X122936000Y-76149200D03*
%TO.P,U4,6,GND*%
%TO.N,unconnected-(U4-GND-Pad6)*%
X122936000Y-78689200D03*
%TD*%
D19*
%TO.N,GND*%
X142113000Y-87884000D03*
X145542000Y-103251000D03*
X130678000Y-104013000D03*
X130810000Y-92267500D03*
X130622000Y-96266000D03*
X139065000Y-95062000D03*
X145415000Y-94681000D03*
X133096000Y-68580000D03*
%TO.N,Net-(U10-EN)*%
X139700000Y-83058000D03*
X134874000Y-92075000D03*
%TO.N,Net-(U8-SDA)*%
X151765000Y-84709000D03*
X152273000Y-91313000D03*
%TO.N,Net-(U6-D8)*%
X138176000Y-81026000D03*
X139573000Y-77978000D03*
%TO.N,Net-(U10-VREF)*%
X147955000Y-91567000D03*
X148082000Y-89061000D03*
%TD*%
D20*
%TO.N,GND*%
X142042000Y-87813000D02*
X142113000Y-87884000D01*
X142042000Y-86155000D02*
X142042000Y-87813000D01*
X145542000Y-103251000D02*
X145542000Y-102721001D01*
%TO.N,Net-(U10-EN)*%
X144592000Y-116652000D02*
X144780000Y-116840000D01*
X144592000Y-105658500D02*
X144592000Y-116652000D01*
X142042000Y-83805000D02*
X142042000Y-82755000D01*
X140522000Y-83880000D02*
X141967000Y-83880000D01*
X141967000Y-83880000D02*
X142042000Y-83805000D01*
X139700000Y-83058000D02*
X140522000Y-83880000D01*
X132522000Y-94427000D02*
X134874000Y-92075000D01*
X132522000Y-96266000D02*
X132522000Y-94427000D01*
%TO.N,Net-(U8-SDA)*%
X149811000Y-82755000D02*
X143342000Y-82755000D01*
X151765000Y-84709000D02*
X149811000Y-82755000D01*
X155321000Y-91186000D02*
X152400000Y-91186000D01*
X152400000Y-91186000D02*
X152273000Y-91313000D01*
%TO.N,Net-(U8-INT)*%
X155497000Y-86155000D02*
X143342000Y-86155000D01*
X158456000Y-89114000D02*
X155497000Y-86155000D01*
X158456000Y-90060999D02*
X158456000Y-89114000D01*
X157711000Y-90386000D02*
X158130999Y-90386000D01*
X158130999Y-90386000D02*
X158456000Y-90060999D01*
%TO.N,Net-(U6-D8)*%
X138176000Y-82939000D02*
X141392000Y-86155000D01*
X138176000Y-81026000D02*
X138176000Y-82939000D01*
X139573000Y-77343000D02*
X139573000Y-77978000D01*
X148336000Y-68580000D02*
X139573000Y-77343000D01*
%TO.N,Net-(U10-VREF)*%
X147955000Y-91567000D02*
X147955000Y-94041000D01*
X144548000Y-89061000D02*
X148082000Y-89061000D01*
X147955000Y-94041000D02*
X145415000Y-96581000D01*
X142692000Y-87205000D02*
X144548000Y-89061000D01*
X142692000Y-86155000D02*
X142692000Y-87205000D01*
X147117000Y-98283000D02*
X147117000Y-105033500D01*
X147117000Y-105033500D02*
X146492000Y-105658500D01*
X145415000Y-96581000D02*
X147117000Y-98283000D01*
X145034000Y-96962000D02*
X145415000Y-96581000D01*
X139065000Y-96962000D02*
X145034000Y-96962000D01*
%TO.N,Net-(U10-EN)*%
X144592000Y-105658500D02*
X144592000Y-103383500D01*
X133207500Y-103383500D02*
X144592000Y-103383500D01*
X132578000Y-104013000D02*
X133207500Y-103383500D01*
X132522000Y-103957000D02*
X132578000Y-104013000D01*
X132522000Y-96266000D02*
X132522000Y-103957000D01*
%TO.N,Net-(U8-SCL)*%
X131853500Y-90386000D02*
X155321000Y-90386000D01*
X130810000Y-89342500D02*
X131853500Y-90386000D01*
X130810000Y-86552500D02*
X130810000Y-89342500D01*
%TO.N,Net-(U6-SCL)*%
X130810000Y-73914000D02*
X125476000Y-68580000D01*
X130810000Y-83627500D02*
X130810000Y-73914000D01*
%TO.N,Net-(U6-SDA)*%
X141392000Y-81956000D02*
X141392000Y-82755000D01*
X128016000Y-68580000D02*
X141392000Y-81956000D01*
%TO.N,GND*%
X145542000Y-103383500D02*
X145542000Y-103251000D01*
%TO.N,Net-(U10-EN)*%
X132578000Y-96322000D02*
X132522000Y-96266000D01*
%TO.N,Net-(U10-VREF)*%
X142692000Y-86155000D02*
X142692000Y-87218604D01*
X142692000Y-82755000D02*
X142692000Y-86155000D01*
%TO.N,Net-(U10-EN)*%
X142042000Y-83705000D02*
X141867000Y-83880000D01*
X142042000Y-82755000D02*
X142042000Y-83705000D01*
%TO.N,GND*%
X145034000Y-95062000D02*
X145415000Y-94681000D01*
%TD*%
M02*
